<?xml version="1.0" encoding="utf-8"?>
<!-- Generator: Adobe Illustrator 22.1.0, SVG Export Plug-In . SVG Version: 6.00 Build 0)  -->
<svg version="1.1" id="clock" xmlns="http://www.w3.org/2000/svg" xmlns:xlink="http://www.w3.org/1999/xlink" x="0px" y="0px"
	 viewBox="0 0 28 28" style="enable-background:new 0 0 28 28;" xml:space="preserve">
<style type="text/css">
	.st0{fill:#FFFFFF;}
	.st1{fill:#FF0D35;}
	.st2{fill:#666666;}
</style>
<path class="st0" d="M-175.3-134c-81.7,0-148,66.3-148,148s66.3,148,148,148s148-66.3,148-148S-93.6-134-175.3-134z M-91.1-41.4
	l25.6-14.8c2.8-1.6,6.5-0.7,8.1,2.2c1.6,2.8,0.7,6.5-2.2,8.1l-25.6,14.8c-2.8,1.6-6.5,0.7-8.1-2.2C-94.9-36.1-93.9-39.8-91.1-41.4z
	 M-181.2-116.2c0-3.3,2.7-5.9,5.9-5.9c3.3,0,5.9,2.7,5.9,5.9v29.6c0,3.3-2.7,5.9-5.9,5.9c-3.3,0-5.9-2.7-5.9-5.9V-116.2z
	 M-243.4-103.9c2.8-1.6,6.5-0.7,8.1,2.2l14.8,25.6c1.6,2.8,0.7,6.4-2.2,8.1c-2.8,1.6-6.5,0.7-8.1-2.2l-14.8-25.6
	C-247.2-98.7-246.2-102.3-243.4-103.9z M-311.5,14c0-3.3,2.7-5.9,5.9-5.9l29.6,0c3.3,0,5.9,2.6,5.9,5.9c0,3.3-2.7,5.9-5.9,5.9
	l-29.6,0C-308.8,19.9-311.5,17.3-311.5,14z M-259.5,69.4l-25.6,14.8c-2.8,1.6-6.5,0.7-8.1-2.2c-1.6-2.8-0.7-6.5,2.2-8.1l25.6-14.8
	c2.8-1.6,6.5-0.7,8.1,2.2C-255.7,64.2-256.7,67.8-259.5,69.4z M-257.3-33.4c-1.6,2.8-5.3,3.8-8.1,2.2L-291-46
	c-2.8-1.6-3.8-5.3-2.2-8.1c1.6-2.8,5.3-3.8,8.1-2.2l25.6,14.8C-256.6-39.8-255.7-36.2-257.3-33.4z M-220.5,104.1l-14.8,25.6
	c-1.6,2.8-5.3,3.8-8.1,2.2c-2.8-1.6-3.8-5.3-2.2-8.1l14.8-25.6c1.6-2.8,5.3-3.8,8.1-2.2C-219.8,97.7-218.9,101.3-220.5,104.1z
	 M-169.4,144.2c0,3.3-2.7,5.9-5.9,5.9c-3.3,0-5.9-2.7-5.9-5.9l0-29.6c0-3.3,2.6-5.9,5.9-5.9c3.3,0,5.9,2.7,5.9,5.9L-169.4,144.2z
	 M-107.3,131.9c-2.8,1.6-6.5,0.7-8.1-2.2l-14.8-25.6c-1.6-2.8-0.7-6.5,2.2-8.1c2.8-1.6,6.5-0.7,8.1,2.2l14.8,25.6
	C-103.5,126.7-104.4,130.3-107.3,131.9z M-105-95.8l-14.8,25.6c-1.6,2.8-5.3,3.8-8.1,2.2c-2.8-1.6-3.8-5.3-2.2-8.1l14.8-25.6
	c1.6-2.8,5.3-3.8,8.1-2.2C-104.3-102.2-103.3-98.6-105-95.8z M-57.4,82.1c-1.6,2.8-5.3,3.8-8.1,2.2l-25.6-14.8
	c-2.8-1.6-3.8-5.3-2.2-8.1c1.6-2.8,5.3-3.8,8.1-2.2L-59.6,74C-56.7,75.7-55.8,79.3-57.4,82.1z M-45.1,20l-29.6,0
	c-3.3,0-5.9-2.6-5.9-5.9c0-3.3,2.7-5.9,5.9-5.9l29.6,0c3.3,0,5.9,2.7,5.9,5.9C-39.1,17.3-41.8,20-45.1,20z"/>
<path class="st1" d="M99.4-22.3v72.5c0,3.2-2.6,5.7-5.7,5.7h-0.5c-3.2,0-5.7-2.6-5.7-5.7v-72.5c0-3.2,2.6-5.7,5.7-5.7h0.5
	C96.8-28,99.4-25.4,99.4-22.3z"/>
<path class="st2" d="M59.4-8.3v44.5c0,3.2-2.6,5.7-5.7,5.7h-0.5c-3.2,0-5.7-2.6-5.7-5.7V-8.3c0-3.2,2.6-5.7,5.7-5.7h0.5
	C56.8-14,59.4-11.4,59.4-8.3z"/>
<circle cx="14" cy="14" r="13"/>
</svg>
