<?xml version="1.0" encoding="utf-8"?>
<!-- Generator: Adobe Illustrator 22.1.0, SVG Export Plug-In . SVG Version: 6.00 Build 0)  -->
<svg version="1.1" id="clock" xmlns="http://www.w3.org/2000/svg" xmlns:xlink="http://www.w3.org/1999/xlink" x="0px" y="0px"
	 viewBox="0 0 14 86" style="enable-background:new 0 0 14 86;" xml:space="preserve">
<style type="text/css">
	.st0{fill:#FFFFFF;}
	.st1{fill:#FF0D35;}
	.st2{fill:#666666;}
</style>
<path class="st0" d="M-261.7-105c-81.7,0-148,66.3-148,148s66.3,148,148,148s148-66.3,148-148S-180-105-261.7-105z M-177.5-12.4
	l25.6-14.8c2.8-1.6,6.5-0.7,8.1,2.2c1.6,2.8,0.7,6.5-2.2,8.1l-25.6,14.8c-2.8,1.6-6.5,0.7-8.1-2.2C-181.3-7.1-180.3-10.8-177.5-12.4
	z M-267.6-87.2c0-3.3,2.7-5.9,5.9-5.9c3.3,0,5.9,2.7,5.9,5.9v29.6c0,3.3-2.7,5.9-5.9,5.9c-3.3,0-5.9-2.7-5.9-5.9V-87.2z
	 M-329.8-74.9c2.8-1.6,6.5-0.7,8.1,2.2l14.8,25.6c1.6,2.8,0.7,6.4-2.2,8.1c-2.8,1.6-6.5,0.7-8.1-2.2l-14.8-25.6
	C-333.6-69.7-332.6-73.3-329.8-74.9z M-397.9,43c0-3.3,2.7-5.9,5.9-5.9l29.6,0c3.3,0,5.9,2.6,5.9,5.9c0,3.3-2.7,5.9-5.9,5.9l-29.6,0
	C-395.2,48.9-397.9,46.3-397.9,43z M-345.9,98.4l-25.6,14.8c-2.8,1.6-6.5,0.7-8.1-2.2c-1.6-2.8-0.7-6.5,2.2-8.1l25.6-14.8
	c2.8-1.6,6.5-0.7,8.1,2.2C-342.1,93.2-343.1,96.8-345.9,98.4z M-343.7-4.4c-1.6,2.8-5.3,3.8-8.1,2.2L-377.4-17
	c-2.8-1.6-3.8-5.3-2.2-8.1c1.6-2.8,5.3-3.8,8.1-2.2l25.6,14.8C-343.1-10.8-342.1-7.2-343.7-4.4z M-306.9,133.1l-14.8,25.6
	c-1.6,2.8-5.3,3.8-8.1,2.2c-2.8-1.6-3.8-5.3-2.2-8.1l14.8-25.6c1.6-2.8,5.3-3.8,8.1-2.2C-306.2,126.7-305.3,130.3-306.9,133.1z
	 M-255.8,173.2c0,3.3-2.7,5.9-5.9,5.9c-3.3,0-5.9-2.7-5.9-5.9l0-29.6c0-3.3,2.6-5.9,5.9-5.9c3.3,0,5.9,2.7,5.9,5.9L-255.8,173.2z
	 M-193.7,160.9c-2.8,1.6-6.5,0.7-8.1-2.2l-14.8-25.6c-1.6-2.8-0.7-6.5,2.2-8.1c2.8-1.6,6.5-0.7,8.1,2.2l14.8,25.6
	C-189.9,155.7-190.8,159.3-193.7,160.9z M-191.4-66.8l-14.8,25.6c-1.6,2.8-5.3,3.8-8.1,2.2c-2.8-1.6-3.8-5.3-2.2-8.1l14.8-25.6
	c1.6-2.8,5.3-3.8,8.1-2.2C-190.7-73.2-189.8-69.6-191.4-66.8z M-143.8,111.1c-1.6,2.8-5.3,3.8-8.1,2.2l-25.6-14.8
	c-2.8-1.6-3.8-5.3-2.2-8.1c1.6-2.8,5.3-3.8,8.1-2.2L-146,103C-143.1,104.7-142.2,108.3-143.8,111.1z M-131.5,49l-29.6,0
	c-3.3,0-5.9-2.6-5.9-5.9c0-3.3,2.7-5.9,5.9-5.9l29.6,0c3.3,0,5.9,2.7,5.9,5.9C-125.5,46.3-128.2,49-131.5,49z"/>
<path class="st1" d="M13,6.7v72.5c0,3.2-2.6,5.7-5.7,5.7H6.7C3.6,85,1,82.4,1,79.3V6.7C1,3.6,3.6,1,6.7,1h0.5C10.4,1,13,3.6,13,6.7z
	"/>
<path class="st2" d="M-27,20.7v44.5c0,3.2-2.6,5.7-5.7,5.7h-0.5c-3.2,0-5.7-2.6-5.7-5.7V20.7c0-3.2,2.6-5.7,5.7-5.7h0.5
	C-29.6,15-27,17.6-27,20.7z"/>
<circle cx="-72.4" cy="43" r="13"/>
</svg>
