<?xml version="1.0" encoding="utf-8"?>
<!-- Generator: Adobe Illustrator 22.1.0, SVG Export Plug-In . SVG Version: 6.00 Build 0)  -->
<svg version="1.1" id="clock" xmlns="http://www.w3.org/2000/svg" xmlns:xlink="http://www.w3.org/1999/xlink" x="0px" y="0px"
	 viewBox="0 0 14 58" style="enable-background:new 0 0 14 58;" xml:space="preserve">
<style type="text/css">
	.st0{fill:#FFFFFF;}
	.st1{fill:#FF0D35;}
	.st2{fill:#666666;}
</style>
<path class="st0" d="M-221.7-119c-81.7,0-148,66.3-148,148s66.3,148,148,148s148-66.3,148-148S-140-119-221.7-119z M-137.5-26.4
	l25.6-14.8c2.8-1.6,6.5-0.7,8.1,2.2c1.6,2.8,0.7,6.5-2.2,8.1l-25.6,14.8c-2.8,1.6-6.5,0.7-8.1-2.2
	C-141.3-21.1-140.3-24.8-137.5-26.4z M-227.6-101.2c0-3.3,2.7-5.9,5.9-5.9c3.3,0,5.9,2.7,5.9,5.9v29.6c0,3.3-2.7,5.9-5.9,5.9
	c-3.3,0-5.9-2.7-5.9-5.9V-101.2z M-289.8-88.9c2.8-1.6,6.5-0.7,8.1,2.2l14.8,25.6c1.6,2.8,0.7,6.4-2.2,8.1c-2.8,1.6-6.5,0.7-8.1-2.2
	l-14.8-25.6C-293.6-83.7-292.6-87.3-289.8-88.9z M-357.9,29c0-3.3,2.7-5.9,5.9-5.9l29.6,0c3.3,0,5.9,2.6,5.9,5.9
	c0,3.3-2.7,5.9-5.9,5.9l-29.6,0C-355.2,34.9-357.9,32.3-357.9,29z M-305.9,84.4l-25.6,14.8c-2.8,1.6-6.5,0.7-8.1-2.2
	c-1.6-2.8-0.7-6.5,2.2-8.1l25.6-14.8c2.8-1.6,6.5-0.7,8.1,2.2C-302.1,79.2-303.1,82.8-305.9,84.4z M-303.7-18.4
	c-1.6,2.8-5.3,3.8-8.1,2.2L-337.4-31c-2.8-1.6-3.8-5.3-2.2-8.1c1.6-2.8,5.3-3.8,8.1-2.2l25.6,14.8
	C-303.1-24.8-302.1-21.2-303.7-18.4z M-266.9,119.1l-14.8,25.6c-1.6,2.8-5.3,3.8-8.1,2.2c-2.8-1.6-3.8-5.3-2.2-8.1l14.8-25.6
	c1.6-2.8,5.3-3.8,8.1-2.2C-266.2,112.7-265.3,116.3-266.9,119.1z M-215.8,159.2c0,3.3-2.7,5.9-5.9,5.9c-3.3,0-5.9-2.7-5.9-5.9
	l0-29.6c0-3.3,2.6-5.9,5.9-5.9c3.3,0,5.9,2.7,5.9,5.9L-215.8,159.2z M-153.7,146.9c-2.8,1.6-6.5,0.7-8.1-2.2l-14.8-25.6
	c-1.6-2.8-0.7-6.5,2.2-8.1c2.8-1.6,6.5-0.7,8.1,2.2l14.8,25.6C-149.9,141.7-150.8,145.3-153.7,146.9z M-151.4-80.8l-14.8,25.6
	c-1.6,2.8-5.3,3.8-8.1,2.2c-2.8-1.6-3.8-5.3-2.2-8.1l14.8-25.6c1.6-2.8,5.3-3.8,8.1-2.2C-150.7-87.2-149.8-83.6-151.4-80.8z
	 M-103.8,97.1c-1.6,2.8-5.3,3.8-8.1,2.2l-25.6-14.8c-2.8-1.6-3.8-5.3-2.2-8.1c1.6-2.8,5.3-3.8,8.1-2.2L-106,89
	C-103.1,90.7-102.2,94.3-103.8,97.1z M-91.5,35l-29.6,0c-3.3,0-5.9-2.6-5.9-5.9c0-3.3,2.7-5.9,5.9-5.9l29.6,0c3.3,0,5.9,2.7,5.9,5.9
	C-85.5,32.3-88.2,35-91.5,35z"/>
<path class="st1" d="M53-7.3v72.5c0,3.2-2.6,5.7-5.7,5.7h-0.5c-3.2,0-5.7-2.6-5.7-5.7V-7.3c0-3.2,2.6-5.7,5.7-5.7h0.5
	C50.4-13,53-10.4,53-7.3z"/>
<path class="st2" d="M13,6.7v44.5c0,3.2-2.6,5.7-5.7,5.7H6.7C3.6,57,1,54.4,1,51.3V6.7C1,3.6,3.6,1,6.7,1h0.5C10.4,1,13,3.6,13,6.7z
	"/>
<circle cx="-32.4" cy="29" r="13"/>
</svg>
